<svg xmlns="http://www.w3.org/2000/svg" width="1600" height="960" viewBox="0 0 1600 960" role="img" aria-labelledby="title desc"><title id="title">KORA LED Clock — ESP8266 to 5 V LEDs / Połączenie ESP8266 z diodami 5 V</title><desc id="desc">Reference wiring for the supplied ESP8266 sketch: D2 GPIO4 to 74AHCT125 input pin 2, output pin 3 through 330–470 ohms to first LED DIN. 74AHCT125 pin 14 to external regulated 5 V, pins 1 and 7 to common ground. ESP powered by USB, LEDs by separate 5 V supply. 100 nF across chip supply and 500–1000 microfarad across LED supply. No LED power through ESP board.</desc><rect width="1600" height="960" rx="28" fill="#0a111b"/><g font-family="Arial,Helvetica,sans-serif">
<text x="64" y="63" font-size="32" fill="#edf3fa" font-weight="700">KORA / LED CLOCK</text>
<text x="64" y="105" font-size="27" fill="#55e5d1" font-weight="700">ESP8266 → ADDRESSABLE LEDs · 5 V</text>
<text x="64" y="139" font-size="19" fill="#aebed0" font-weight="400">ESP8266 → DIODY ADRESOWALNE · 5 V</text>
<path d="M1080 73h30" fill="none" stroke="#55e5d1" stroke-width="5" stroke-linecap="round" stroke-linejoin="round"/>
<text x="1122" y="80" font-size="17" fill="#aebed0" font-weight="700">DATA / DANE</text>
<path d="M1290 73h30" fill="none" stroke="#ff947f" stroke-width="5" stroke-linecap="round" stroke-linejoin="round"/>
<text x="1332" y="80" font-size="17" fill="#aebed0" font-weight="700">+5 V</text>
<path d="M1430 73h30" fill="none" stroke="#a9b7c8" stroke-width="5" stroke-linecap="round" stroke-linejoin="round"/>
<text x="1472" y="80" font-size="17" fill="#aebed0" font-weight="700">GND</text>
<path d="M399 350H530" fill="none" stroke="#55e5d1" stroke-width="5" stroke-linecap="round" stroke-linejoin="round"/>
<path d="M850 350H930 M990 350H1090" fill="none" stroke="#55e5d1" stroke-width="5" stroke-linecap="round" stroke-linejoin="round"/>
<path d="M399 470H430V630H1430V550" fill="none" stroke="#a9b7c8" stroke-width="5" stroke-linecap="round" stroke-linejoin="round"/>
<path d="M640 512V630" fill="none" stroke="#a9b7c8" stroke-width="5" stroke-linecap="round" stroke-linejoin="round"/>
<path d="M790 512V600" fill="none" stroke="#ff947f" stroke-width="5" stroke-linecap="round" stroke-linejoin="round"/>
<path d="M399 775H450V600H1320V550" fill="none" stroke="#ff947f" stroke-width="5" stroke-linecap="round" stroke-linejoin="round"/>
<path d="M399 815H480V630" fill="none" stroke="#a9b7c8" stroke-width="5" stroke-linecap="round" stroke-linejoin="round"/>
<path d="M740 600V607 M740 623V630" fill="none" stroke="#a9b7c8" stroke-width="4" stroke-linecap="round" stroke-linejoin="round"/>
<path d="M728 609H752 M728 621H752" fill="none" stroke="#a9b7c8" stroke-width="4" stroke-linecap="round" stroke-linejoin="round"/>
<circle cx="740" cy="600" r="7" fill="#ff947f" stroke="#0a111b" stroke-width="2"/>
<circle cx="740" cy="630" r="7" fill="#a9b7c8" stroke="#0a111b" stroke-width="2"/>
<text x="765" y="620" font-size="18" fill="#aebed0" font-weight="400">100 nF</text>
<path d="M1120 600V607 M1120 623V630" fill="none" stroke="#a9b7c8" stroke-width="4" stroke-linecap="round" stroke-linejoin="round"/>
<path d="M1103 609H1137 M1103 621H1137" fill="none" stroke="#a9b7c8" stroke-width="4" stroke-linecap="round" stroke-linejoin="round"/>
<text x="1144" y="617" font-size="17" fill="#ff947f" font-weight="700">+</text>
<circle cx="430" cy="630" r="7" fill="#a9b7c8" stroke="#0a111b" stroke-width="2"/>
<circle cx="480" cy="630" r="7" fill="#a9b7c8" stroke="#0a111b" stroke-width="2"/>
<circle cx="640" cy="630" r="7" fill="#a9b7c8" stroke="#0a111b" stroke-width="2"/>
<circle cx="790" cy="600" r="7" fill="#ff947f" stroke="#0a111b" stroke-width="2"/>
<circle cx="1120" cy="600" r="7" fill="#ff947f" stroke="#0a111b" stroke-width="2"/>
<circle cx="1120" cy="630" r="7" fill="#a9b7c8" stroke="#0a111b" stroke-width="2"/>
<rect x="64" y="190" width="335" height="380" rx="22" fill="#151f2b" stroke="#344255" stroke-width="2"/>
<text x="90" y="232" font-size="30" fill="#edf3fa" font-weight="700">ESP8266</text>
<text x="90" y="264" font-size="21" fill="#aebed0" font-weight="400">NodeMCU / D1 mini</text>
<text x="90" y="294" font-size="17" fill="#aebed0" font-weight="400">Logical pins / piny logiczne</text>
<text x="90" y="345" font-size="28" fill="#55e5d1" font-weight="700">D2 / GPIO4</text>
<text x="90" y="378" font-size="19" fill="#aebed0" font-weight="400">LED DATA · 3.3 V</text>
<text x="90" y="417" font-size="20" fill="#ff947f" font-weight="700">3V3 ≠ LED POWER</text>
<text x="90" y="470" font-size="26" fill="#a9b7c8" font-weight="700">GND</text>
<text x="90" y="526" font-size="19" fill="#aebed0" font-weight="400">USB → ESP power only</text>
<text x="90" y="550" font-size="17" fill="#aebed0" font-weight="400">USB → zasilanie tylko ESP</text>
<circle cx="399" cy="350" r="7" fill="#55e5d1" stroke="#0a111b" stroke-width="2"/>
<circle cx="399" cy="470" r="7" fill="#a9b7c8" stroke="#0a111b" stroke-width="2"/>
<rect x="530" y="260" width="320" height="252" rx="22" fill="#151f2b" stroke="#344255" stroke-width="2"/>
<text x="554" y="300" font-size="27" fill="#edf3fa" font-weight="700">74AHCT125</text>
<text x="554" y="328" font-size="20" fill="#aebed0" font-weight="400">3.3 V → 5 V</text>
<text x="554" y="368" font-size="20" fill="#55e5d1" font-weight="700">2 · 1A</text>
<text x="744" y="368" font-size="20" fill="#55e5d1" font-weight="700">3 · 1Y</text>
<text x="554" y="413" font-size="20" fill="#a9b7c8" font-weight="400">1 · /OE → GND</text>
<text x="554" y="449" font-size="21" fill="#a9b7c8" font-weight="700">7 · GND</text>
<text x="711" y="482" font-size="20" fill="#ff947f" font-weight="700">14 · +5 V</text>
<text x="554" y="482" font-size="18" fill="#a9b7c8" font-weight="400">GND</text>
<circle cx="530" cy="350" r="7" fill="#55e5d1" stroke="#0a111b" stroke-width="2"/>
<circle cx="850" cy="350" r="7" fill="#55e5d1" stroke="#0a111b" stroke-width="2"/>
<circle cx="640" cy="512" r="7" fill="#a9b7c8" stroke="#0a111b" stroke-width="2"/>
<circle cx="790" cy="512" r="7" fill="#ff947f" stroke="#0a111b" stroke-width="2"/>
<rect x="930" y="338" width="60" height="24" rx="3" fill="#152a2a" stroke="#55e5d1" stroke-width="3"/>
<text x="897" y="310" font-size="21" fill="#55e5d1" font-weight="700">330–470 Ω</text>
<text x="912" y="393" font-size="18" fill="#aebed0" font-weight="400">near DIN</text>
<text x="910" y="418" font-size="18" fill="#aebed0" font-weight="400">przy DIN</text>
<rect x="1090" y="250" width="430" height="300" rx="22" fill="#151f2b" stroke="#344255" stroke-width="2"/>
<text x="1120" y="291" font-size="29" fill="#edf3fa" font-weight="700">137 × RGB LED</text>
<text x="1120" y="321" font-size="18" fill="#aebed0" font-weight="400">NeoPixel-compatible · GRB · 800 kHz</text>
<text x="1114" y="369" font-size="21" fill="#55e5d1" font-weight="700">DIN</text>
<path d="M1180 350H1464" fill="none" stroke="#55e5d1" stroke-width="3" stroke-linecap="round" stroke-linejoin="round"/>
<path d="M1453 342l12 8-12 8" fill="none" stroke="#55e5d1" stroke-width="3"/>
<rect x="1156" y="398" width="40" height="40" rx="6" fill="#223340" stroke="#536676"/><rect x="1168" y="410" width="16" height="16" rx="3" fill="#55e5d1"/>
<rect x="1212" y="398" width="40" height="40" rx="6" fill="#223340" stroke="#536676"/><rect x="1224" y="410" width="16" height="16" rx="3" fill="#55e5d1"/>
<rect x="1268" y="398" width="40" height="40" rx="6" fill="#223340" stroke="#536676"/><rect x="1280" y="410" width="16" height="16" rx="3" fill="#55e5d1"/>
<rect x="1324" y="398" width="40" height="40" rx="6" fill="#223340" stroke="#536676"/><rect x="1336" y="410" width="16" height="16" rx="3" fill="#55e5d1"/>
<rect x="1380" y="398" width="40" height="40" rx="6" fill="#223340" stroke="#536676"/><rect x="1392" y="410" width="16" height="16" rx="3" fill="#55e5d1"/>
<rect x="1436" y="398" width="40" height="40" rx="6" fill="#223340" stroke="#536676"/><rect x="1448" y="410" width="16" height="16" rx="3" fill="#55e5d1"/>
<text x="1120" y="478" font-size="18" fill="#aebed0" font-weight="400">FIRST PIXEL / PIERWSZA DIODA</text>
<text x="1285" y="525" font-size="23" fill="#ff947f" font-weight="700">+5 V</text>
<text x="1398" y="525" font-size="23" fill="#a9b7c8" font-weight="700">GND</text>
<circle cx="1090" cy="350" r="7" fill="#55e5d1" stroke="#0a111b" stroke-width="2"/>
<circle cx="1320" cy="550" r="7" fill="#ff947f" stroke="#0a111b" stroke-width="2"/>
<circle cx="1430" cy="550" r="7" fill="#a9b7c8" stroke="#0a111b" stroke-width="2"/>
<text x="835" y="574" font-size="19" fill="#ff947f" font-weight="700">+5 V LED POWER / ZASILANIE LED</text>
<text x="865" y="675" font-size="22" fill="#a9b7c8" font-weight="700">500–1000 µF · ≥10 V</text>
<text x="865" y="702" font-size="18" fill="#aebed0" font-weight="400">+ to +5 V, − to GND / + do +5 V, − do GND</text>
<text x="494" y="660" font-size="19" fill="#a9b7c8" font-weight="700">COMMON GROUND / WSPÓLNA MASA</text>
<rect x="64" y="680" width="335" height="175" rx="22" fill="#151f2b" stroke="#344255" stroke-width="2"/>
<text x="89" y="711" font-size="24" fill="#edf3fa" font-weight="700">REGULATED 5 V DC</text>
<text x="89" y="741" font-size="17" fill="#aebed0" font-weight="400">ZASILACZ STABILIZOWANY</text>
<text x="89" y="778" font-size="19" fill="#ff947f" font-weight="700">+5 V → fuse / bezpiecznik</text>
<text x="89" y="818" font-size="18" fill="#a9b7c8" font-weight="400">GND → common ground</text>
<circle cx="399" cy="775" r="7" fill="#ff947f" stroke="#0a111b" stroke-width="2"/>
<circle cx="399" cy="815" r="7" fill="#a9b7c8" stroke="#0a111b" stroke-width="2"/>
<rect x="530" y="742" width="990" height="145" rx="22" fill="#151f2b" stroke="#344255" stroke-width="2"/>
<text x="554" y="777" font-size="20" fill="#55e5d1" font-weight="700">REFERENCE CONNECTIONS / POŁĄCZENIA REFERENCYJNE</text>
<text x="554" y="808" font-size="19" fill="#aebed0" font-weight="400">100 nF: between pins 14 and 7, next to the chip / między pinami 14 i 7, przy układzie.</text>
<text x="554" y="838" font-size="19" fill="#aebed0" font-weight="400">Power + GND: direct to strip; do not route LED current through ESP or Dupont wires.</text>
<text x="554" y="866" font-size="19" fill="#aebed0" font-weight="400">Zasilanie LED bezpośrednio do taśmy; nie przez ESP ani cienkie przewody Dupont.</text>
<text x="64" y="925" font-size="19" fill="#aebed0" font-weight="400">Dots mark connections. Crossing lines without dots are not connected. Pin mapping comes from the sketch.</text>
<text x="64" y="949" font-size="18" fill="#aebed0" font-weight="400">Kropka oznacza połączenie; skrzyżowanie bez kropki nie łączy przewodów. Sprawdź model płytki i napięcie taśmy.</text>
</g></svg>